<?xml version="1.0" encoding="UTF-8"?><svg id="Layer_1" xmlns="http://www.w3.org/2000/svg" viewBox="0 0 342.5 303.5"><defs><style>.cls-1{fill:#fff;}</style></defs><path class="cls-1" d="m33.06,6.5h271.5c13.98,0,25.33,11.35,25.33,25.33v240.34c0,13.98-11.35,25.33-25.33,25.33H35.64c-13.98,0-25.33-11.35-25.33-25.33V29.25c0-12.56,10.19-22.75,22.75-22.75Z"/><rect x="159.05" y="47.33" width="20.65" height="216.51" transform="translate(159.63 -74.2) rotate(45)"/><polygon points="104.11 102.71 120.93 120.41 89.07 152.27 107.65 169.97 89.07 189.55 53.67 153.15 104.11 102.71"/><polygon points="238.62 205.47 221.81 187.78 253.66 155.92 235.08 138.22 253.66 118.64 289.06 155.03 238.62 205.47"/></svg>