<?xml version="1.0" encoding="UTF-8"?><svg id="Layer_1" xmlns="http://www.w3.org/2000/svg" viewBox="0 0 796 429"><defs><style>.cls-1{fill:#fff;}</style></defs><path d="m35.98,6h722.69c13.98,0,25.33,11.35,25.33,25.33v362.61c0,13.98-11.35,25.33-25.33,25.33H38.55c-13.98,0-25.33-11.35-25.33-25.33V28.75c0-12.56,10.19-22.75,22.75-22.75Z"/><path class="cls-1" d="m681.42,65.28h33.55v233.33c0,31.36-16.05,47.21-47.77,47.21s-47.77-15.85-47.77-47.21V65.28h33.55v233.33c0,10.79,4.74,16.18,14.22,16.18s14.22-5.39,14.22-16.18V65.28Z"/><rect x="667.19" y="291.83" width="81.22" height="74.99"/><path class="cls-1" d="m585.99,345.8h0s0,0,0,0c0,0-69.69-280.33-69.47-280.52h-33.91v280.54h32.1s-.83-113.4-.02-159.82c0,0,38.9,159.81,38.2,159.82h35.55v-.02h-2.44Z"/><rect class="cls-1" x="555.69" y="65.47" width="31.86" height="104.25"/><path class="cls-1" d="m375.47,277.24l4.92-32.3c6.05-41.29,14.64-102.36,19.06-144.81,4.43,42.52,8.76,99.12,14.24,141.6l35.09.11-20.17-176.74h-57.21l-39.59,280.71h34.22c-.59,3.54,9.14-69.02,9.45-68.57h0Z"/><polygon class="cls-1" points="452.37 271.55 417.38 271.55 424.79 345.81 460.05 345.81 452.37 271.55"/><rect class="cls-1" x="161.97" y="114.33" width="20.65" height="216.51" transform="translate(207.86 -56.63) rotate(45)"/><polygon class="cls-1" points="107.03 169.71 123.84 187.41 91.98 219.27 110.57 236.97 91.98 256.55 56.59 220.15 107.03 169.71"/><polygon class="cls-1" points="241.54 272.47 224.72 254.78 256.58 222.92 238 205.22 256.58 185.64 291.98 222.03 241.54 272.47"/><rect class="cls-1" x="520.96" y="369.4" width="26.28" height="26.28" transform="translate(-114.06 489.71) rotate(-45)"/></svg>